<svg id="logo" xmlns="http://www.w3.org/2000/svg" width="114" height="82.25" viewBox="0 0 114 82.25">
  <defs>
    <style>
      .cls-1 {
        fill-rule: evenodd;
      }
    </style>
  </defs>
  <path id="Home_store" data-name="Home store" class="cls-1" d="M940.257,122h2.905V105.2h-2.905v6.792h-7.008V105.2h-2.9V122h2.9v-7.489h7.008V122Zm10.776,0.24c3.336,0,5.472-1.872,5.472-5.376v-1.681c0-3.5-2.136-5.376-5.472-5.376-3.313,0-5.449,1.872-5.449,5.376v1.681C945.584,120.368,947.72,122.24,951.033,122.24Zm0-9.913c1.728,0,2.52,1.176,2.52,2.952v1.489c0,1.8-.792,2.952-2.52,2.952-1.705,0-2.473-1.152-2.473-2.952v-1.489C948.56,113.5,949.328,112.327,951.033,112.327Zm10.439,3.12c0-2.088,1.1-3.12,2.448-3.12,1.417,0,1.969.84,1.969,2.544V122h2.9v-6.553c0-2.088,1.1-3.12,2.448-3.12,1.416,0,1.968.84,1.968,2.544V122h2.905v-7.921c0-2.808-1.417-4.272-3.769-4.272a4.156,4.156,0,0,0-3.888,2.28,3.283,3.283,0,0,0-3.432-2.28,3.731,3.731,0,0,0-3.553,2.328v-2.088h-2.88V122h2.88v-6.553Zm27.073,2.953h-2.832a1.914,1.914,0,0,1-1.9,1.392c-0.072,0-.168.024-0.24,0.024a2.275,2.275,0,0,1-2.448-2.208c-0.048-.288-0.072-0.6-0.1-0.912h7.585v-1.369c0-3.576-2.016-5.52-5.161-5.52-3.288,0-5.4,1.872-5.4,5.376v1.681c0,3.5,2.16,5.376,5.352,5.376C986.289,122.24,988.185,120.824,988.545,118.4Zm-7.513-3.553c0.072-1.632.84-2.64,2.424-2.64s2.281,0.864,2.377,2.712H981.32Zm-42.623,20.168c1.416,0,1.992.552,2.112,1.7h2.857c-0.144-2.52-1.633-3.912-4.993-3.912-3.1,0-4.632,1.44-4.632,3.648,0,2.136,1.176,3.049,3.5,3.481l1.776,0.336c1.32,0.264,1.7.528,1.7,1.416s-0.528,1.368-2.04,1.368c-1.632,0-2.3-.576-2.52-1.824h-2.736c0.312,2.736,2.064,4.008,5.208,4.008,3.337,0,4.993-1.224,4.993-3.7,0-2.088-1.008-2.929-3.889-3.505l-1.536-.288c-1.128-.24-1.56-0.552-1.56-1.416S937.137,135.015,938.409,135.015Zm14.016,7.681h-1.512a1.641,1.641,0,0,1-1.92-1.872V135.5h3.432v-2.448h-3.432v-3.456h-2.9v3.456h-1.777V135.5h1.777v5.329c0,3.048,1.272,4.3,4.224,4.3h2.112V142.7Zm6.216,2.544c3.336,0,5.472-1.872,5.472-5.376v-1.681c0-3.5-2.136-5.376-5.472-5.376-3.312,0-5.448,1.872-5.448,5.376v1.681C953.193,143.368,955.329,145.24,958.641,145.24Zm0-9.913c1.728,0,2.52,1.176,2.52,2.952v1.489c0,1.8-.792,2.952-2.52,2.952-1.7,0-2.472-1.152-2.472-2.952v-1.489C956.169,136.5,956.937,135.327,958.641,135.327Zm10.44,3.528c0-2.184,1.392-3.168,3.312-3.168h0.744v-2.88h-0.576a3.745,3.745,0,0,0-3.48,2.28v-2.04H966.2V145h2.881v-6.145Zm15.24,2.545h-2.832a1.914,1.914,0,0,1-1.9,1.392c-0.072,0-.168.024-0.24,0.024a2.275,2.275,0,0,1-2.449-2.208c-0.048-.288-0.072-0.6-0.1-0.912h7.585v-1.369c0-3.576-2.016-5.52-5.16-5.52-3.289,0-5.4,1.872-5.4,5.376v1.681c0,3.5,2.16,5.376,5.353,5.376C982.065,145.24,983.961,143.824,984.321,141.4Zm-7.513-3.553c0.072-1.632.84-2.64,2.425-2.64s2.28,0.864,2.376,2.712H977.1Z" transform="translate(-902 -63)"/>
  <path class="cls-1" d="M1015.81,103.917c-0.13-.014-0.32-0.036-0.57-0.068-0.5-.063-1.22-0.165-2.14-0.32s-2.02-.364-3.28-0.635c-0.63-.139-1.3-0.288-2.01-0.461-0.35-.084-0.71-0.178-1.07-0.27-0.19-.048-0.37-0.1-0.56-0.146s-0.38-.1-0.57-0.152-0.38-.106-0.58-0.159-0.39-.111-0.58-0.168c-0.4-.111-0.8-0.234-1.21-0.355-0.81-.25-1.65-0.514-2.51-0.805s-1.724-.6-2.61-0.93l-0.665-.254-0.335-.128-0.335-.133-0.675-.268-0.676-.279c-1.809-.748-3.642-1.592-5.461-2.515l-0.341-.172-0.34-.178-0.68-.357c-0.113-.059-0.226-0.121-0.338-0.183l-0.338-.185-0.337-.185c-0.113-.062-0.226-0.123-0.337-0.187l-0.67-.382-0.335-.191-0.331-.2-0.663-.394c-0.22-.132-0.437-0.27-0.656-0.4l-0.327-.2c-0.109-.068-0.219-0.134-0.326-0.2l-0.645-.417-0.322-.208c-0.107-.07-0.213-0.142-0.319-0.213l-0.634-.427c-0.212-.14-0.418-0.29-0.626-0.434l-0.621-.436-0.61-.446-0.3-.222c-0.1-.074-0.2-0.147-0.3-0.224-1.6-1.2-3.106-2.455-4.5-3.723s-2.674-2.552-3.83-3.812l-0.426-.473-0.211-.233c-0.07-.078-0.14-0.154-0.207-0.233l-0.8-.928c-0.066-.075-0.128-0.153-0.191-0.23l-0.187-.23-0.369-.453c-0.246-.3-0.473-0.6-0.7-0.891-0.459-.58-0.868-1.159-1.266-1.7-0.051-.067-0.1-0.137-0.144-0.2l-0.141-.2-0.275-.4-0.267-.386L966,75.233c-0.02-.032-0.041-0.064-0.062-0.1q-0.063-.1-0.123-0.189c-0.325-.5-0.638-0.963-0.9-1.407l-0.389-.631-0.091-.149-0.045-.073c-0.015-.024-0.027-0.047-0.041-0.071l-0.156-.273-0.54-.941L963.2,70.6l-0.371-.671L959,63l-3.832,6.927L954.8,70.6l-0.445.806-0.54.941-0.156.273c-0.014.023-.026,0.047-0.041,0.071l-0.045.073c-0.03.049-.061,0.1-0.091,0.149l-0.389.631c-0.264.444-.577,0.9-0.9,1.407q-0.06.094-.123,0.189c-0.021.032-.042,0.064-0.062,0.1l-0.066.095-0.267.386-0.275.4-0.141.2c-0.047.068-.093,0.138-0.144,0.2-0.4.54-.807,1.119-1.266,1.7-0.227.292-.454,0.6-0.7,0.891l-0.369.453-0.187.23c-0.063.077-.125,0.155-0.191,0.23l-0.8.928c-0.067.08-.137,0.156-0.207,0.233l-0.211.233-0.426.473c-1.156,1.26-2.436,2.544-3.83,3.812s-2.9,2.52-4.5,3.723c-0.1.077-.2,0.15-0.3,0.224l-0.3.222-0.61.446-0.621.436c-0.208.145-.414,0.294-0.626,0.434l-0.634.427c-0.106.071-.212,0.143-0.318,0.213l-0.323.208-0.645.417c-0.107.071-.217,0.136-0.326,0.2l-0.327.2c-0.219.134-.436,0.272-0.656,0.4l-0.663.394-0.331.2-0.335.191-0.67.382c-0.111.064-.224,0.125-0.337,0.187l-0.337.185-0.338.185c-0.112.062-.225,0.124-0.338,0.183l-0.68.357-0.34.178-0.341.172c-1.819.923-3.652,1.767-5.461,2.515l-0.676.279-0.675.268-0.335.133-0.335.128-0.665.254c-0.886.329-1.758,0.644-2.614,0.93s-1.693.555-2.508,0.805c-0.408.121-.808,0.244-1.2,0.355l-0.588.168-0.578.159c-0.191.053-.38,0.1-0.568,0.152l-0.556.146c-0.368.092-.727,0.186-1.078,0.27-0.7.173-1.372,0.322-2,.461-1.262.271-2.37,0.482-3.287,0.635s-1.641.257-2.136,0.32c-0.247.032-.437,0.054-0.565,0.068l-0.2.02,0.2,0.011c0.129,0.007.321,0.016,0.571,0.024,0.5,0.017,1.235.033,2.171,0.026s2.074-.035,3.38-0.1c0.652-.036,1.347-0.077,2.079-0.137,0.367-.026.742-0.062,1.127-0.094l0.583-.057c0.2-.019.395-0.038,0.6-0.06l0.608-.066,0.62-.073c0.418-.047.843-0.106,1.276-0.161,0.864-.119,1.758-0.249,2.674-0.4s1.857-.326,2.818-0.516l0.722-.149,0.365-.076,0.365-.08,0.737-.163,0.741-.174c1.986-.467,4.025-1.032,6.081-1.688l0.387-.122,0.385-.128,0.773-.259c0.129-.042.257-0.089,0.386-0.134l0.386-.136,0.386-.137c0.129-.046.259-0.091,0.387-0.139l0.771-.288,0.387-.145,0.384-.151,0.77-.3c0.257-.1.51-0.21,0.766-0.315l0.383-.159c0.128-.053.256-0.105,0.383-0.161l0.76-.332,0.381-.166c0.126-.056.251-0.115,0.377-0.173l0.754-.347c0.253-.114.5-0.238,0.749-0.357l0.746-.361,0.737-.375,0.368-.188c0.122-.063.245-0.124,0.366-0.19,1.945-1.023,3.821-2.125,5.593-3.278s3.438-2.355,4.974-3.565l0.569-.455,0.281-.226c0.094-.075.188-0.149,0.278-0.226l1.075-.907c0.09-.074.175-0.15,0.261-0.226l0.256-.227,0.5-.448c0.337-.293.653-0.6,0.968-0.889,0.635-.581,1.214-1.167,1.776-1.718,0.071-.068.137-0.139,0.2-0.209l0.2-.208L959,82.163l0.178,0.184,0.2,0.208c0.068,0.07.134,0.141,0.2,0.209,0.562,0.551,1.141,1.137,1.776,1.718,0.315,0.293.631,0.6,0.968,0.889l0.5,0.448,0.256,0.227c0.086,0.076.171,0.153,0.261,0.226l1.075,0.907c0.09,0.078.184,0.151,0.278,0.226l0.281,0.226,0.569,0.455c1.536,1.21,3.2,2.413,4.974,3.565s3.648,2.255,5.593,3.278c0.121,0.066.244,0.127,0.366,0.19l0.368,0.188,0.737,0.375,0.746,0.361c0.249,0.119.5,0.244,0.749,0.357l0.754,0.347c0.126,0.057.251,0.116,0.377,0.173l0.381,0.166,0.76,0.332c0.127,0.056.255,0.108,0.383,0.161l0.383,0.159c0.256,0.1.509,0.214,0.766,0.315l0.77,0.3,0.384,0.151,0.387,0.145,0.771,0.288c0.128,0.049.258,0.094,0.387,0.139l0.386,0.137,0.386,0.136c0.129,0.045.257,0.092,0.386,0.134l0.773,0.259,0.385,0.128L988.291,100c2.056,0.656,4.095,1.221,6.081,1.688l0.741,0.174,0.737,0.163,0.365,0.08,0.365,0.076,0.722,0.149c0.961,0.19,1.9.366,2.818,0.516s1.81,0.285,2.67.4c0.44,0.055.86,0.114,1.28,0.161l0.62,0.073,0.61,0.066c0.2,0.022.4,0.041,0.59,0.06l0.59,0.057c0.38,0.032.76,0.068,1.12,0.094,0.74,0.06,1.43.1,2.08,0.137,1.31,0.067,2.45.1,3.38,0.1s1.67-.009,2.17-0.026c0.25-.008.45-0.017,0.57-0.024l0.2-.011Z" transform="translate(-902 -63)"/>
</svg>
